<?xml version="1.0"?>
<svg width="512" height="512" xmlns="http://www.w3.org/2000/svg" xmlns:svg="http://www.w3.org/2000/svg">
 <!-- Font Awesome Pro 5.15.4 by @fontawesome - https://fontawesome.com License - https://fontawesome.com/license (Commercial License) -->
 <g class="layer">
  <title>Layer 1</title>
  <path d="m6,256c0,-137 111,-248 248,-248s248,111 248,248s-111,248 -248,248s-248,-111 -248,-248zm231,-113.9l-135.5,135.5c-9.4,9.4 -9.4,24.6 0,33.9l17,17c9.4,9.4 24.6,9.4 33.9,0l101.6,-101.6l101.6,101.6c9.4,9.4 24.6,9.4 33.9,0l17,-17c9.4,-9.4 9.4,-24.6 0,-33.9l-135.5,-135.5c-9.4,-9.4 -24.6,-9.4 -34,0z" fill="#C70101" id="svg_1" stroke="#fff" stroke-width="5"/>
 </g>
</svg>